<?xml version="1.0" encoding="UTF-8"?>
<!--Generator: Apple Native CoreSVG 175.5-->
<!DOCTYPE svg
PUBLIC "-//W3C//DTD SVG 1.1//EN"
       "http://www.w3.org/Graphics/SVG/1.1/DTD/svg11.dtd">
<svg version="1.1" xmlns="http://www.w3.org/2000/svg" xmlns:xlink="http://www.w3.org/1999/xlink" width="19.2867" height="18.1264">
 <g>
  <rect height="18.1264" opacity="0" width="19.2867" x="0" y="0"/>
  <path d="M1.79085 17.5124C2.48617 18.2077 3.29867 18.1531 4.00179 17.3484L11.4315 8.88744L9.1346 6.59056L0.650228 13.9968C-0.162272 14.7077-0.209147 15.5124 0.486166 16.2156ZM15.6815 10.7859C16.0174 11.1062 16.4002 11.1296 16.7205 10.8093L19.0721 8.47337C19.3768 8.16869 19.3534 7.76244 19.0252 7.44212L18.4627 6.87181C18.158 6.57494 17.9627 6.52806 17.6346 6.5515L16.7205 6.66087L16.1346 6.07494L16.4002 4.97337C16.533 4.43431 16.3299 3.864 15.7596 3.29369L14.1893 1.739C12.0174-0.425064 8.01742-0.667251 5.77523 1.56712C5.40023 1.94212 5.47054 2.364 5.71273 2.62962C5.90023 2.80931 6.18929 2.90306 6.46273 2.81712C7.97835 2.364 9.29867 2.27806 10.4393 2.95775L9.83773 4.53587C9.57992 5.19994 9.72054 5.66869 10.1424 6.09837L11.8846 7.84056C12.2049 8.16087 12.5409 8.25462 13.0487 8.15306L14.3065 7.89525L14.8846 8.48119L14.7987 9.39525C14.7752 9.739 14.8065 9.94212 15.119 10.2312Z" fill="#000000" fill-opacity="0.85"/>
 </g>
</svg>
